<?xml version="1.0" encoding="utf-8"?>
<!-- Generator: Adobe Illustrator 18.0.0, SVG Export Plug-In . SVG Version: 6.00 Build 0)  -->
<!DOCTYPE svg PUBLIC "-//W3C//DTD SVG 1.1//EN" "http://www.w3.org/Graphics/SVG/1.1/DTD/svg11.dtd">
<svg version="1.1" id="Layer_1" xmlns="http://www.w3.org/2000/svg" xmlns:xlink="http://www.w3.org/1999/xlink" x="0px" y="0px"
	 viewBox="0 0 409.6 169.6" enable-background="new 0 0 409.6 169.6" xml:space="preserve">
<g>
	<polygon fill="#F9F9F9" points="409.6,63.9 0,169.6 0,105.7 409.6,0 	"/>
	<g>
		<path fill="#983723" d="M27,154.6c-1.8,0.4-3.3,0.6-4.7,0.4c-1.3-0.2-2.4-0.6-3.3-1.2c-0.9-0.7-1.6-1.6-2.1-2.8
			c-0.5-1.2-0.9-2.5-1.1-3.9c-0.2-1.4-0.3-3.1-0.3-5v-12c0-1.9,0.1-3.6,0.3-5.2c0.2-1.6,0.6-3.1,1.1-4.5c0.5-1.5,1.2-2.7,2.1-3.8
			c0.9-1.1,2-2.1,3.3-2.9s2.9-1.5,4.7-1.9c2-0.5,3.6-0.6,5.1-0.4c1.4,0.2,2.6,0.8,3.4,1.7s1.5,2.1,1.9,3.4c0.4,1.4,0.7,3,0.8,5
			c0,0.3,0,0.8,0,1.4l-6,1.5V123c0-0.8,0-1.5-0.1-2.1c0-0.6-0.1-1.2-0.3-1.8s-0.3-1.1-0.5-1.4c-0.2-0.4-0.5-0.7-0.9-0.9
			c-0.4-0.3-0.8-0.4-1.4-0.4c-0.6,0-1.2,0.1-2,0.3c-1,0.2-1.8,0.6-2.5,1.1c-0.7,0.5-1.2,1-1.6,1.6c-0.4,0.6-0.7,1.3-0.9,2.2
			c-0.2,0.9-0.3,1.7-0.4,2.5c-0.1,0.8-0.1,1.8-0.1,2.9v15c0,1,0,1.9,0.1,2.7c0.1,0.8,0.3,1.6,0.5,2.3c0.2,0.7,0.6,1.3,1,1.8
			s0.9,0.8,1.6,0.9c0.7,0.2,1.4,0.1,2.3-0.1c0.9-0.2,1.7-0.6,2.3-1.1c0.6-0.5,1.1-1.1,1.5-1.7c0.4-0.6,0.7-1.4,0.9-2.3
			c0.2-0.9,0.3-1.7,0.4-2.5c0.1-0.8,0.1-1.7,0.1-2.7v-1.5l6-1.5v1.5c0,2.2-0.2,4.1-0.6,5.9c-0.4,1.7-1,3.3-1.9,4.8s-2,2.7-3.5,3.7
			C30.9,153.3,29.1,154.1,27,154.6z"/>
		<path fill="#983723" d="M53,148c-2.1,0.5-3.9,0.7-5.4,0.4c-1.5-0.3-2.7-0.9-3.6-1.9c-0.9-1-1.5-2.3-1.9-3.9
			c-0.4-1.6-0.6-3.4-0.6-5.6v-15.2c0-2.2,0.2-4.2,0.6-5.9c0.4-1.7,1.1-3.3,1.9-4.8c0.9-1.4,2.1-2.7,3.6-3.6c1.5-1,3.3-1.8,5.4-2.3
			c4.1-1,7-0.6,8.9,1.3c1.8,1.9,2.7,5,2.7,9.5v15.2c0,2.2-0.2,4.1-0.6,5.9c-0.4,1.8-1.1,3.4-2,4.9c-0.9,1.5-2.1,2.7-3.6,3.7
			C56.9,146.7,55.1,147.5,53,148z M48.7,142.3c0.8,1.1,2.3,1.3,4.4,0.8c2.1-0.5,3.6-1.5,4.4-3c0.8-1.5,1.2-3.4,1.2-5.9V116
			c0-2.4-0.4-4.2-1.2-5.2c-0.8-1-2.3-1.2-4.4-0.7c-2.1,0.5-3.6,1.5-4.4,2.9c-0.8,1.4-1.2,3.3-1.2,5.8V137
			C47.5,139.5,47.9,141.3,48.7,142.3z"/>
		<path fill="#983723" d="M69.9,143.4v-42l4.5-1.1l10.5,23.3v-26l6-1.5v42l-4.3,1.1l-10.7-25.2v27.9L69.9,143.4z"/>
		<path fill="#983723" d="M108.1,134.1c-1.9,0.5-3.6,0.6-5,0.4c-1.4-0.2-2.6-0.6-3.5-1.4c-0.9-0.7-1.6-1.7-2.1-3
			c-0.5-1.3-0.9-2.8-1.1-4.3c-0.2-1.6-0.3-3.4-0.3-5.5v-10.6c0-10.3,4.1-16.5,12.2-18.5c2-0.5,3.6-0.6,5.1-0.4
			c1.4,0.2,2.6,0.8,3.5,1.7c0.9,0.9,1.6,2,2,3.4c0.5,1.4,0.7,3.1,0.8,5c0,0.3,0,0.7,0,1.3l-6,1.5v-1.3c0-1-0.1-1.8-0.2-2.5
			c-0.1-0.7-0.2-1.3-0.5-2c-0.2-0.6-0.5-1.1-0.9-1.4c-0.4-0.3-0.9-0.5-1.6-0.6c-0.6-0.1-1.4,0-2.3,0.2c-1.2,0.3-2.2,0.8-3.1,1.4
			c-0.8,0.7-1.5,1.5-1.9,2.4c-0.4,1-0.8,2-0.9,3.1s-0.3,2.3-0.3,3.6v13.5c0,1,0,1.9,0.1,2.7s0.2,1.6,0.3,2.4c0.1,0.8,0.4,1.5,0.7,2
			c0.3,0.5,0.6,1,1.1,1.4c0.4,0.4,1,0.6,1.6,0.7c0.6,0.1,1.4,0,2.2-0.2c1-0.3,1.9-0.7,2.6-1.2c0.7-0.6,1.3-1.2,1.7-2
			c0.4-0.7,0.8-1.6,1-2.6c0.2-1,0.4-2,0.5-3c0.1-1,0.1-2,0.1-3.2v-1.5l-6,1.5v-4.5l12-3v21l-4.5,1.1l-1.5-4.1
			C113,131.2,111,133.4,108.1,134.1z"/>
		<path fill="#983723" d="M125,129.4v-42l7.5-1.9c4.5-1.1,7.8-1.1,10.1,0c2.3,1.2,3.4,3.8,3.4,7.8c0,2.5-0.4,4.7-1.3,6.6
			c-0.9,1.9-2.2,3.4-3.9,4.5l6.8,19.3l-6,1.5l-6-18l-4.5,1.1v19.5L125,129.4z M131,103.9l1.5-0.4c2.5-0.6,4.4-1.6,5.6-3
			c1.2-1.4,1.9-3.3,1.9-5.6s-0.6-4-1.9-4.7c-1.3-0.7-3.1-0.8-5.6-0.2l-1.5,0.4V103.9z"/>
		<path fill="#983723" d="M148.3,123.5l9-44.3l6-1.5l9,39.7l-6,1.5l-2.2-9.9l-7.5,1.9l-2.2,11.1L148.3,123.5z M157.3,106.2l6-1.5
			l-3-17.2L157.3,106.2z"/>
		<path fill="#983723" d="M180.2,115.5V78.8l-7.5,1.9v-5.3l21-5.3v5.3l-7.5,1.9v36.7L180.2,115.5z"/>
		<path fill="#983723" d="M213.2,106.8c-1.4,0.8-3,1.5-4.8,1.9c-1.8,0.5-3.4,0.6-4.8,0.5s-2.5-0.5-3.4-1.2c-0.9-0.6-1.6-1.5-2.2-2.7
			c-0.6-1.2-1-2.5-1.2-4c-0.2-1.5-0.4-3.2-0.4-5.1v-27l6-1.5v27c0,1.3,0,2.4,0.1,3.2c0.1,0.9,0.2,1.8,0.4,2.7c0.2,0.9,0.6,1.6,1,2.1
			c0.4,0.5,1,0.8,1.8,1c0.8,0.2,1.7,0.2,2.8-0.1c1.1-0.3,2-0.7,2.8-1.3c0.8-0.6,1.3-1.2,1.8-1.9c0.4-0.7,0.7-1.6,1-2.6
			c0.2-1.1,0.4-2,0.4-2.9c0.1-0.9,0.1-2,0.1-3.3v-27l6-1.5v27c0,1.9-0.1,3.7-0.4,5.3c-0.2,1.6-0.6,3.1-1.2,4.6
			c-0.6,1.5-1.3,2.7-2.2,3.8C215.7,105,214.6,106,213.2,106.8z"/>
		<path fill="#983723" d="M226,103.9v-42l6-1.5v37.5l10.5-2.7v4.5L226,103.9z"/>
		<path fill="#983723" d="M242.7,99.7l9-44.3l6-1.5l9,39.7l-6,1.5l-2.2-9.9l-7.5,1.9l-2.3,11.1L242.7,99.7z M251.7,82.4l6-1.5
			l-3-17.2L251.7,82.4z"/>
		<path fill="#983723" d="M274.5,91.6V54.9l-7.5,1.9v-5.3l21-5.3v5.3l-7.5,1.9v36.7L274.5,91.6z"/>
		<path fill="#983723" d="M291.3,87.4v-42l6-1.5v42L291.3,87.4z"/>
		<path fill="#983723" d="M314.6,81.9c-2.1,0.5-3.9,0.7-5.4,0.4c-1.5-0.3-2.7-0.9-3.6-1.9c-0.9-1-1.5-2.3-1.9-3.9
			c-0.4-1.6-0.6-3.4-0.6-5.6V55.7c0-2.2,0.2-4.2,0.6-5.9c0.4-1.7,1.1-3.3,1.9-4.8c0.9-1.4,2.1-2.7,3.6-3.6c1.5-1,3.3-1.8,5.4-2.3
			c4.1-1,7-0.6,8.9,1.3s2.7,5,2.7,9.5V65c0,2.2-0.2,4.1-0.6,5.9c-0.4,1.8-1.1,3.4-2,4.9c-0.9,1.5-2.1,2.7-3.6,3.7
			C318.5,80.6,316.7,81.4,314.6,81.9z M310.2,76.2c0.8,1.1,2.3,1.3,4.4,0.8c2.1-0.5,3.6-1.5,4.4-3s1.2-3.4,1.2-5.9V49.8
			c0-2.4-0.4-4.2-1.2-5.2c-0.8-1-2.3-1.2-4.4-0.7c-2.1,0.5-3.6,1.5-4.4,2.9c-0.8,1.4-1.2,3.3-1.2,5.8v18.2
			C309,73.4,309.4,75.1,310.2,76.2z"/>
		<path fill="#983723" d="M331.4,77.2v-42l4.5-1.1l10.5,23.3v-26l6-1.5v42l-4.3,1.1l-10.7-25.2v27.9L331.4,77.2z"/>
		<path fill="#983723" d="M369.3,68c-3.8,1-6.7,0.6-8.7-1.1c-2-1.7-3.1-4.5-3.3-8.3l6-3c0.3,5.9,2.3,8.4,6,7.5
			c3-0.8,4.5-2.6,4.5-5.6c0-0.9-0.1-1.7-0.4-2.4c-0.2-0.7-0.6-1.3-1.1-1.8c-0.5-0.5-1-0.9-1.4-1.2c-0.4-0.3-1-0.6-1.7-1l-7.5-4.1
			c-1.4-0.7-2.5-1.8-3.3-3.3c-0.8-1.5-1.2-3.2-1.2-5.4c0-3.1,1-5.8,2.9-8.1s4.5-3.9,7.6-4.7c3.4-0.9,6.1-0.7,8.1,0.4
			s3.2,3.2,3.7,6.1c0,0.3,0.1,0.8,0.2,1.3l-6,3c0-0.3-0.1-0.6-0.1-1.2c-0.3-1.8-0.9-3.2-1.8-4.1c-0.9-0.9-2.3-1.1-4.1-0.7
			c-1.4,0.4-2.5,1-3.3,2c-0.8,1-1.2,2.2-1.2,3.7c0,2.4,1,4.1,3,5.2l7.5,4.1c4,2.2,6,5.6,6,10.1c0,3.1-0.9,5.7-2.8,7.9
			C375.1,65.7,372.6,67.2,369.3,68z"/>
		<path fill="#983723" d="M384.2,54.9l-1.5-32.6l6-1.5L387.7,54L384.2,54.9z M382.7,64.2v-6l6-1.5v6L382.7,64.2z"/>
	</g>
</g>
</svg>
