<?xml version="1.0" encoding="utf-8"?>
<!-- Generator: Adobe Illustrator 18.0.0, SVG Export Plug-In . SVG Version: 6.00 Build 0)  -->
<!DOCTYPE svg PUBLIC "-//W3C//DTD SVG 1.1//EN" "http://www.w3.org/Graphics/SVG/1.1/DTD/svg11.dtd">
<svg version="1.1" id="Layer_1" xmlns="http://www.w3.org/2000/svg" xmlns:xlink="http://www.w3.org/1999/xlink" x="0px" y="0px"
	 viewBox="0 0 28.2 24" enable-background="new 0 0 28.2 24" xml:space="preserve">
<path fill="#FFFFFF" d="M28.1,8.5L28.1,8.5c0.1-0.5,0.1-0.9,0.1-1.4c0-3.9-3.2-7.1-7.1-7.1c-3.6,0-6.6,2.7-7,6.3l0,0v0l-0.1,0
	C13.7,2.7,10.7,0,7.1,0C3.2,0,0,3.2,0,7.1c0,0.8,0.2,1.6,0.4,2.4C1.3,12.2,4.5,20.3,14.1,24v0C25.5,19.7,27.9,9.2,28.1,8.5
	C28.1,8.5,28.1,8.5,28.1,8.5L28.1,8.5z"/>
</svg>
