<?xml version="1.0" encoding="utf-8"?>
<!-- Generator: Adobe Illustrator 18.0.0, SVG Export Plug-In . SVG Version: 6.00 Build 0)  -->
<!DOCTYPE svg PUBLIC "-//W3C//DTD SVG 1.1//EN" "http://www.w3.org/Graphics/SVG/1.1/DTD/svg11.dtd">
<svg version="1.1" id="Layer_1" xmlns="http://www.w3.org/2000/svg" xmlns:xlink="http://www.w3.org/1999/xlink" x="0px" y="0px"
	 viewBox="0 0 28.2 24" enable-background="new 0 0 28.2 24" xml:space="preserve">
<g>
	<path fill="#FFFFFF" d="M21.2,1c3.3,0,6.1,2.7,6.1,6.1c0,0.4,0,0.8-0.1,1.2l0,0.1l0,0c-0.2,0.7-2.5,10.4-13,14.6
		C5.1,19.3,2.1,11.5,1.4,9.1C1.1,8.4,1,7.7,1,7.1C1,3.7,3.7,1,7.1,1c3.1,0,5.7,2.3,6,5.4l0.1,1l0.9-0.1l1,0.2l0.1-1.1
		C15.5,3.3,18.1,1,21.2,1 M21.2,0c-3.6,0-6.6,2.7-7,6.3l0,0v0l-0.1,0C13.7,2.7,10.7,0,7.1,0C3.2,0,0,3.2,0,7.1
		c0,0.8,0.2,1.6,0.4,2.4C1.3,12.2,4.5,20.3,14.1,24v0c11.4-4.3,13.8-14.8,14-15.5c0,0,0,0,0,0l0,0c0.1-0.5,0.1-0.9,0.1-1.4
		C28.2,3.2,25.1,0,21.2,0L21.2,0z"/>
</g>
</svg>
