<?xml version="1.0" encoding="utf-8"?>
<!-- Generator: Adobe Illustrator 18.0.0, SVG Export Plug-In . SVG Version: 6.00 Build 0)  -->
<!DOCTYPE svg PUBLIC "-//W3C//DTD SVG 1.1//EN" "http://www.w3.org/Graphics/SVG/1.1/DTD/svg11.dtd">
<svg version="1.1" id="Layer_1" xmlns="http://www.w3.org/2000/svg" xmlns:xlink="http://www.w3.org/1999/xlink" x="0px" y="0px"
	 viewBox="0 0 300.2 365.6" enable-background="new 0 0 300.2 365.6" xml:space="preserve">
<polygon fill="#C0AB83" points="51.2,192.7 300.2,209.3 300.2,144.2 51.2,127.6 "/>
<polygon fill="#C0AB83" points="74.7,267.6 221.3,311.5 221.3,246.4 74.7,202.5 "/>
<polygon fill="#C0AB83" points="230.8,145 131.3,85.5 131.3,21.8 230.7,81 "/>
<linearGradient id="SVGID_1_" gradientUnits="userSpaceOnUse" x1="131.2559" y1="42.562" x2="211" y2="42.562">
	<stop  offset="0.6075" style="stop-color:#FFFFFF"/>
	<stop  offset="1" style="stop-color:#FFFFFF;stop-opacity:0"/>
</linearGradient>
<polygon fill="url(#SVGID_1_)" points="211,63.9 131.3,85.1 131.3,21.2 211,0 "/>
<g>
	<defs>
		<polygon id="SVGID_6_" points="135.7,27.4 135.7,77.4 175.2,68.7 175.2,18.7 		"/>
	</defs>
	<clipPath id="SVGID_3_">
		<use xlink:href="#SVGID_6_"  overflow="visible"/>
	</clipPath>
	<path clip-path="url(#SVGID_3_)" d="M167.2,26c-4.6-0.8-15.1-1.5-20-1c-7.2,0.6-12.8,8.2-11.1,14.8c1.7,6.5,6.1,14,7.3,16.1
		c1.7,2.8,3.6,6,7.5,6.8c1.5,0.3,3.2,0.1,4.8-0.7c-0.8-0.1-1.6-0.7-2.8-2.1c-3.1-3.6-5.4-9.4-6.2-14.7c-0.8-5.7,3.4-11.6,9.5-12.8
		c4.5-0.9,6.8-1.2,10.5-1.3c4.4-0.1,6,2.4,5.5,4.4c-4.2,0.6-8.5,1.8-11.6,3.5c-2.2,1.2-4.4,2.7-4,7.3c2.9-1.5,5.9-3.1,8.5-4.5
		c0,2-0.5,4.1-1.1,5.8c-1.4,1.2-3.9,3-6.2,4.5c0.8,2.5,1.7,4.4,2.2,4.9c0.2,0.3,0.5,0.5,0.7,0.8c3.2-3.1,7.7-7.5,8.2-8.1
		c1-1.1,1.6-2,2.2-3.6c1.2-3,3.1-9.3,4-12.1C176,30.3,173.3,27.1,167.2,26"/>
	<path clip-path="url(#SVGID_3_)" d="M138.8,69.3l3.7-0.8v1.8l-3.2,0.7V72l2.8-0.6c0,0,0,1.7-1.5,2l-1.3,0.3v1.5
		c0,0.7-0.6,1.4-1.5,1.6l-0.7,0.1v-5.6C137.1,70.4,137.6,69.6,138.8,69.3"/>
	<path clip-path="url(#SVGID_3_)" d="M149.5,71.4c0,2-1.1,3.2-3.3,3.7c-2.2,0.5-3.3-0.3-3.3-2.2v-4.4l2.2-0.5v3.9c0,0.2,0,0.4,0,0.6
		c0,0.2,0.1,0.4,0.1,0.5c0.1,0.1,0.2,0.3,0.3,0.3c0.2,0.1,0.4,0.1,0.6,0c0.3-0.1,0.5-0.2,0.6-0.3c0.1-0.1,0.3-0.3,0.3-0.5
		c0.1-0.2,0.1-0.4,0.1-0.6c0-0.2,0-0.4,0-0.6v-3.9l2.1-0.5V71.4z"/>
	<path clip-path="url(#SVGID_3_)" d="M167.3,65.8c0-2,1.1-3.2,3.3-3.7c2.2-0.5,3.3,0.3,3.3,2.2v4.4l-0.6,0.1
		c-0.9,0.2-1.6-0.3-1.6-1.4v-2.2c0-0.2,0-0.4,0-0.6c0-0.2-0.1-0.4-0.1-0.5c-0.1-0.1-0.2-0.3-0.3-0.3c-0.2-0.1-0.4-0.1-0.6,0
		c-0.3,0.1-0.5,0.2-0.6,0.3c-0.1,0.1-0.3,0.3-0.3,0.5c-0.1,0.2-0.1,0.4-0.1,0.6c0,0.2,0,0.4,0,0.6v3.9l-2.2,0.5V65.8z"/>
	<path clip-path="url(#SVGID_3_)" d="M152.1,71.2c0,0.2,0,0.3,0.1,0.5c0.1,0.2,0.2,0.3,0.5,0.3c0.2,0,0.4,0,0.6,0
		c0.2,0,0.4-0.1,0.6-0.3c0.2-0.1,0.3-0.3,0.3-0.6c0-0.2-0.1-0.3-0.3-0.4c-0.2-0.1-0.6-0.1-1.3-0.1c-0.3,0-0.6,0-0.8-0.1
		c-0.3,0-0.6-0.1-0.8-0.2c-0.2-0.1-0.4-0.2-0.6-0.5c-0.2-0.2-0.2-0.5-0.2-0.8c0-0.8,0.3-1.5,0.9-2c0.5-0.5,1.2-0.8,1.9-1
		c0.8-0.2,1.5-0.2,2,0.1c0.5,0.2,0.8,0.8,0.9,1.6l-2,0.4c0-0.3-0.1-0.4-0.3-0.5c-0.2-0.1-0.4-0.1-0.6,0c-0.2,0-0.3,0.1-0.5,0.2
		c-0.1,0-0.1,0.1-0.2,0.2c-0.1,0.1-0.1,0.2-0.1,0.3c0,0.1,0.1,0.2,0.2,0.3c0.1,0.1,0.3,0.1,0.5,0.1c0.4,0,0.9,0.1,1.4,0.1
		c0.3,0,0.5,0,0.8,0.1c0.2,0,0.5,0.1,0.7,0.2c0.2,0.1,0.4,0.3,0.5,0.5c0.1,0.2,0.2,0.5,0.2,0.8c0,0.9-0.4,1.7-1,2.2
		c-0.7,0.5-1.4,0.9-2.3,1c-0.2,0-0.5,0.1-0.8,0.1c-0.3,0-0.7,0-1-0.1c-0.3-0.1-0.6-0.3-0.9-0.6c-0.2-0.3-0.4-0.7-0.4-1.3L152.1,71.2
		z"/>
</g>
<polygon points="156.9,65.3 159.1,64.9 159.1,72.1 156.9,72.5 "/>
<path d="M159.6,68.3c0-1.1,0.3-2.1,1-2.9c0.6-0.8,1.5-1.4,2.6-1.6c1.1-0.2,1.9-0.1,2.6,0.5c0.6,0.5,1,1.4,1,2.5c0,1.1-0.3,2.1-1,2.9
	c-0.6,0.8-1.5,1.4-2.6,1.6c-1.1,0.2-1.9,0.1-2.6-0.5C160,70.3,159.6,69.5,159.6,68.3 M161.8,67.9c0,0.4,0,0.7,0.1,0.9
	c0.1,0.2,0.2,0.4,0.4,0.5c0.3,0.2,0.6,0.3,0.9,0.2c0.1,0,0.3-0.1,0.5-0.2c0.2-0.1,0.3-0.2,0.5-0.4c0.1-0.2,0.3-0.4,0.4-0.7
	c0.1-0.3,0.1-0.6,0.1-1c0-0.4,0-0.7-0.1-1c-0.1-0.2-0.2-0.4-0.4-0.5c-0.3-0.2-0.6-0.3-0.9-0.2c-0.1,0-0.3,0.1-0.4,0.2
	c-0.2,0.1-0.3,0.2-0.5,0.4c-0.1,0.1-0.1,0.2-0.2,0.3c-0.1,0.1-0.1,0.2-0.2,0.4C161.8,67.1,161.8,67.5,161.8,67.9"/>
<polygon fill="#F9F9F9" points="231.3,144.2 51.2,190.9 51.2,127 231.3,80.3 "/>
<linearGradient id="SVGID_4_" gradientUnits="userSpaceOnUse" x1="0" y1="305.9375" x2="221.333" y2="305.9375">
	<stop  offset="0" style="stop-color:#FFFFFF;stop-opacity:0"/>
	<stop  offset="0.3118" style="stop-color:#FFFFFF"/>
</linearGradient>
<polygon fill="url(#SVGID_4_)" points="221.3,310.2 0,365.6 0,301.7 221.3,246.3 "/>
<polygon fill="#F9F9F9" points="300.2,208.1 74.7,267.2 74.7,203.3 300.2,144.2 "/>
<g>
	<path d="M100.4,175.8v-51.3l-10.5,2.7v-7.5l29.4-7.4v7.5l-10.5,2.7v51.3L100.4,175.8z"/>
	<path d="M123.5,169.9v-58.8l23.1-5.8v6.3l-14.7,3.7v18.9l10.5-2.7v6.3l-10.5,2.7v21l14.7-3.7v6.3L123.5,169.9z"/>
	<path d="M166.8,159.6c-2.5,0.6-4.7,0.8-6.5,0.6c-1.9-0.2-3.4-0.8-4.6-1.7c-1.2-0.9-2.2-2.2-2.9-3.9s-1.3-3.5-1.6-5.5
		c-0.3-2-0.5-4.4-0.5-7v-16.8c0-2.6,0.2-5.1,0.5-7.2c0.3-2.2,0.8-4.3,1.6-6.3s1.7-3.8,2.9-5.4c1.2-1.5,2.7-2.9,4.6-4.1
		c1.9-1.2,4.1-2.1,6.5-2.7c2.7-0.7,5.1-0.9,7.1-0.6c2,0.3,3.6,1.1,4.8,2.4c1.2,1.3,2.1,2.9,2.7,4.8c0.6,1.9,1,4.3,1.1,7
		c0,0.4,0,1.1,0,1.9l-8.4,2.1v-1.9c0-1.2-0.1-2.1-0.1-2.9c-0.1-0.8-0.2-1.6-0.4-2.5c-0.2-0.8-0.4-1.5-0.8-2
		c-0.3-0.5-0.8-0.9-1.3-1.3c-0.5-0.4-1.2-0.6-2-0.6c-0.8,0-1.7,0.1-2.8,0.4c-1.4,0.3-2.5,0.9-3.5,1.5c-1,0.7-1.7,1.4-2.3,2.3
		c-0.5,0.8-1,1.9-1.3,3.1c-0.3,1.2-0.5,2.4-0.6,3.5c-0.1,1.1-0.1,2.5-0.1,4.1v21c0,1.4,0.1,2.7,0.2,3.8c0.1,1.1,0.4,2.2,0.7,3.2
		c0.3,1,0.8,1.9,1.4,2.5c0.6,0.6,1.3,1.1,2.2,1.3c0.9,0.2,2,0.2,3.3-0.1c1.2-0.3,2.3-0.8,3.2-1.5c0.9-0.7,1.6-1.5,2.1-2.4
		c0.5-0.9,0.9-1.9,1.2-3.2c0.3-1.2,0.5-2.4,0.6-3.5c0.1-1.1,0.1-2.4,0.1-3.8v-2.1l8.4-2.1v2.1c0,3-0.3,5.8-0.8,8.2
		c-0.5,2.4-1.4,4.7-2.6,6.7c-1.2,2.1-2.8,3.8-4.9,5.3C172.2,157.8,169.7,158.8,166.8,159.6z"/>
	<path d="M188.1,153.6V94.8l8.4-2.1v25.2l14.7-3.7V88.9l8.4-2.1v58.8l-8.4,2.1v-27.3l-14.7,3.7v27.3L188.1,153.6z"/>
	<path d="M109.5,254.8c-5.3,1.3-9.3,0.8-12.1-1.6c-2.8-2.4-4.4-6.3-4.7-11.6l8.4-4.2c0.4,8.3,3.2,11.8,8.4,10.5
		c4.2-1.1,6.3-3.7,6.3-7.9c0-1.2-0.2-2.4-0.5-3.3c-0.3-1-0.9-1.8-1.6-2.5c-0.7-0.7-1.3-1.3-1.9-1.7s-1.3-0.9-2.3-1.4l-10.5-5.7
		c-1.9-1-3.5-2.6-4.6-4.6c-1.1-2-1.7-4.5-1.7-7.5c0-4.3,1.3-8.1,4-11.4c2.7-3.2,6.3-5.4,10.7-6.5c4.8-1.2,8.6-1,11.4,0.6
		c2.8,1.6,4.5,4.5,5.2,8.6c0.1,0.4,0.1,1.1,0.2,1.8l-8.4,4.2c0-0.4-0.1-0.9-0.2-1.6c-0.4-2.6-1.2-4.5-2.5-5.8
		c-1.3-1.3-3.2-1.6-5.7-1c-2,0.5-3.6,1.5-4.7,2.9c-1.1,1.4-1.6,3.1-1.6,5.1c0,3.3,1.4,5.7,4.2,7.2l10.5,5.7
		c5.6,3.1,8.4,7.8,8.4,14.1c0,4.3-1.3,8-4,11.1C117.5,251.5,113.9,253.6,109.5,254.8z"/>
	<path d="M145.5,245.7c-3,0.7-5.5,0.9-7.6,0.6c-2.1-0.4-3.8-1.3-5-2.7c-1.2-1.4-2.2-3.2-2.7-5.4c-0.6-2.2-0.9-4.8-0.9-7.9v-21.3
		c0-3.1,0.3-5.9,0.9-8.3c0.6-2.4,1.5-4.7,2.7-6.7c1.2-2,2.9-3.7,5-5.1c2.1-1.4,4.6-2.5,7.6-3.2c5.7-1.4,9.9-0.9,12.4,1.8
		s3.8,7.1,3.8,13.3v21.3c0,3-0.3,5.8-0.9,8.3c-0.6,2.5-1.5,4.7-2.7,6.8c-1.2,2.1-2.9,3.8-5,5.2C150.9,243.8,148.4,244.9,145.5,245.7
		z M139.3,237.7c1.1,1.5,3.2,1.9,6.1,1.1c3-0.7,5-2.1,6.1-4.2c1.1-2.1,1.7-4.8,1.7-8.3v-25.5c0-3.4-0.6-5.8-1.7-7.2
		c-1.1-1.4-3.2-1.7-6.1-1c-3,0.8-5,2.1-6.1,4.1c-1.1,2-1.7,4.7-1.7,8.1v25.5C137.7,233.7,138.2,236.2,139.3,237.7z"/>
	<path d="M192.2,232.9c-1.9,1.2-4.2,2.1-6.8,2.7c-2.6,0.6-4.8,0.9-6.8,0.7c-1.9-0.2-3.6-0.7-4.8-1.6c-1.3-0.9-2.3-2.2-3.1-3.8
		c-0.8-1.6-1.3-3.5-1.7-5.5c-0.3-2.1-0.5-4.4-0.5-7.1v-37.8l8.4-2.1v37.8c0,1.8,0,3.3,0.1,4.5c0.1,1.2,0.3,2.5,0.6,3.8
		c0.3,1.3,0.8,2.3,1.4,3c0.6,0.7,1.4,1.2,2.5,1.4s2.3,0.2,3.9-0.2c1.5-0.4,2.8-1,3.9-1.8c1.1-0.8,1.9-1.7,2.5-2.7
		c0.6-1,1-2.2,1.4-3.7c0.3-1.5,0.5-2.8,0.6-4.1c0.1-1.2,0.1-2.8,0.1-4.6V174l8.4-2.1v37.8c0,2.7-0.2,5.1-0.5,7.4
		c-0.3,2.2-0.9,4.3-1.7,6.4c-0.8,2-1.8,3.8-3.1,5.4C195.7,230.3,194.1,231.7,192.2,232.9z"/>
	<path d="M210.1,228.7v-58.8l6.3-1.6l14.7,32.7v-36.4l8.4-2.1v58.8l-6,1.5l-15-35.3v39.1L210.1,228.7z"/>
	<path d="M248,219.1v-58.8l13-3.3c6.1-1.6,10.5-1.4,13,0.5c2.5,1.9,3.8,5.9,3.8,12.1v23.1c0,6.5-1.3,11.5-3.9,15.3s-6.9,6.4-13,7.9
		L248,219.1z M256.4,210.7l4.6-1.2c1.4-0.3,2.6-0.8,3.5-1.3c1-0.5,1.8-1.2,2.4-2c0.6-0.8,1.1-1.6,1.4-2.3c0.3-0.7,0.6-1.7,0.7-3
		s0.2-2.4,0.2-3.2c0-0.8,0-2.1,0-3.8c0-0.6,0-1,0-1.3v-18.9c0-1.1,0-1.9,0-2.6s0-1.4-0.1-2.2c-0.1-0.9-0.1-1.5-0.2-2
		c-0.1-0.5-0.3-1-0.5-1.6c-0.2-0.6-0.4-1-0.7-1.3c-0.3-0.3-0.7-0.6-1.1-0.8c-0.4-0.3-0.9-0.4-1.5-0.5c-0.6,0-1.2,0-2,0
		s-1.6,0.2-2.5,0.5l-4.5,1.1V210.7z"/>
	<path d="M124.8,339.4c-2.4,0.6-4.8,0.4-7.1-0.7c-2.4-1.1-4.1-2.5-5.1-4.2c-0.9,0.4-2,0.7-3.3,1.1c-3,0.7-5.5,0.9-7.6,0.6
		c-2.1-0.4-3.8-1.3-5-2.7c-1.2-1.4-2.2-3.2-2.7-5.4c-0.6-2.2-0.9-4.8-0.9-7.9v-21.3c0-3.1,0.3-5.9,0.9-8.3c0.6-2.4,1.5-4.7,2.7-6.7
		c1.2-2,2.9-3.7,5-5.1c2.1-1.4,4.6-2.5,7.6-3.2c5.7-1.5,9.9-0.9,12.4,1.8c2.5,2.6,3.8,7.1,3.8,13.3v21.3c0,8.7-2.4,15-7.1,19.1
		c0.6,0.8,1.6,1.3,2.9,1.5c1.3,0.3,2.4,0.3,3.5,0V339.4z M103.2,327.5c1.1,1.5,3.2,1.9,6.1,1.1c3-0.7,5-2.1,6.1-4.2
		c1.1-2.1,1.7-4.8,1.7-8.3v-25.5c0-3.4-0.6-5.8-1.7-7.2c-1.1-1.4-3.2-1.7-6.1-1c-3,0.8-5,2.1-6.1,4.1c-1.1,2-1.7,4.7-1.7,8.1v25.5
		C101.5,323.5,102,326,103.2,327.5z"/>
	<path d="M156,322.7c-1.9,1.2-4.2,2.1-6.8,2.7c-2.6,0.6-4.8,0.9-6.8,0.7c-1.9-0.2-3.6-0.7-4.8-1.6c-1.3-0.9-2.3-2.2-3.1-3.8
		c-0.8-1.6-1.3-3.5-1.7-5.5c-0.3-2.1-0.5-4.4-0.5-7.1v-37.8l8.4-2.1v37.8c0,1.8,0,3.3,0.1,4.5c0.1,1.2,0.3,2.5,0.6,3.8
		c0.3,1.3,0.8,2.3,1.4,3c0.6,0.7,1.4,1.2,2.5,1.4c1.1,0.3,2.3,0.2,3.9-0.2c1.5-0.4,2.8-1,3.9-1.8s1.9-1.7,2.5-2.7
		c0.6-1,1-2.2,1.4-3.7c0.3-1.5,0.5-2.8,0.6-4.1c0.1-1.2,0.1-2.8,0.1-4.6v-37.8l8.4-2.1v37.8c0,2.7-0.2,5.1-0.5,7.4
		c-0.3,2.2-0.9,4.3-1.7,6.4c-0.8,2-1.8,3.8-3.1,5.4C159.5,320.2,157.9,321.5,156,322.7z"/>
	<path d="M174.4,318.4v-58.8l8.4-2.1v58.8L174.4,318.4z"/>
	<path d="M189.6,314.6v-6.3l18.9-51l-16.8,4.3v-6.3l25.2-6.4v6.3l-18.9,51l18.9-4.8v6.3L189.6,314.6z"/>
</g>
</svg>
