<?xml version="1.0" encoding="utf-8"?>
<!-- Generator: Adobe Illustrator 18.0.0, SVG Export Plug-In . SVG Version: 6.00 Build 0)  -->
<!DOCTYPE svg PUBLIC "-//W3C//DTD SVG 1.1//EN" "http://www.w3.org/Graphics/SVG/1.1/DTD/svg11.dtd">
<svg version="1.1" id="Layer_1" xmlns="http://www.w3.org/2000/svg" xmlns:xlink="http://www.w3.org/1999/xlink" x="0px" y="0px"
	 viewBox="0 0 30.3 30.1" enable-background="new 0 0 30.3 30.1" xml:space="preserve">
<g>
	<path d="M24.2,4.3C20.7,2.9,12.6,0.6,8.8,0.1C3.3-0.7-1.1,4.2,0.2,9.5c1.3,5.3,4.7,11.8,5.6,13.6c1.3,2.4,2.8,5.2,5.7,6.5
		c1.2,0.5,2.5,0.6,3.7,0.3c-0.6-0.3-1.2-0.8-2.2-2.1c-2.4-3.3-4.2-8.1-4.8-12.3C7.8,11,11,7.2,15.7,7.3c3.4,0.1,5.2,0.3,8,0.8
		c3.4,0.6,4.6,2.9,4.2,4.3c-3.3-0.2-6.5-0.1-8.9,0.7c-1.7,0.5-3.4,1.3-3.1,4.9c2.3-0.7,4.5-1.4,6.6-2c0,1.5-0.4,3.1-0.9,4.3
		c-1.1,0.7-3,1.7-4.7,2.4c0.6,2.1,1.3,3.6,1.7,4.2c0.2,0.2,0.4,0.5,0.6,0.7c2.5-1.9,5.9-4.5,6.3-4.8c0.7-0.7,1.2-1.3,1.7-2.4
		c0.9-2.1,2.4-6.6,3-8.6C31,9.1,28.9,6.1,24.2,4.3"/>
</g>
</svg>
